<svg width="200" height="250" viewBox="0 0 200 250" xmlns="http://www.w3.org/2000/svg">
  <defs>
    <linearGradient id="metal" x1="0%" y1="0%" x2="100%" y2="0%">
      <stop offset="0%" style="stop-color:#8e949e;stop-opacity:1" />
      <stop offset="50%" style="stop-color:#e0e4e8;stop-opacity:1" />
      <stop offset="100%" style="stop-color:#8e949e;stop-opacity:1" />
    </linearGradient>
    <filter id="glow">
      <feGaussianBlur stdDeviation="2" result="coloredBlur"/>
      <feMerge>
        <feMergeNode in="coloredBlur"/>
        <feMergeNode in="SourceGraphic"/>
      </feMerge>
    </filter>
  </defs>

  <ellipse cx="100" cy="210" rx="60" ry="25" fill="#717985"/>
  
  <path d="M40 180 L40 210 A60 25 0 0 0 160 210 L160 180 A60 25 0 0 1 40 180" fill="url(#metal)" stroke="#5f666d" stroke-width="1"/>
  <ellipse cx="100" cy="180" rx="60" ry="25" fill="#d1d6db" stroke="#5f666d" stroke-width="1"/>
  
  <ellipse cx="100" cy="175" rx="55" ry="22" fill="none" stroke="#4a90e2" stroke-width="2" filter="url(#glow)" opacity="0.8"/>

  <path d="M40 130 L40 160 A60 25 0 0 0 160 160 L160 130 A60 25 0 0 1 40 130" fill="url(#metal)" stroke="#5f666d" stroke-width="1"/>
  <ellipse cx="100" cy="130" rx="60" ry="25" fill="#d1d6db" stroke="#5f666d" stroke-width="1"/>
  
  <ellipse cx="100" cy="125" rx="55" ry="22" fill="none" stroke="#4a90e2" stroke-width="2" filter="url(#glow)" opacity="0.8"/>

  <path d="M40 80 L40 110 A60 25 0 0 0 160 110 L160 80 A60 25 0 0 1 40 80" fill="url(#metal)" stroke="#5f666d" stroke-width="1"/>
  <ellipse cx="100" cy="80" rx="60" ry="25" fill="url(#metal)" stroke="#5f666d" stroke-width="1"/>
</svg>
